<svg width="18" height="16" viewBox="0 0 18 16" xmlns="http://www.w3.org/2000/svg">
    <path d="M13.444.292c.166.268.1.615-.14.806l-.06.04-3.141 1.94 5.587.001c.815 0 1.483.635 1.535 1.437l.003.101v9.845c0 .815-.635 1.483-1.437 1.535L15.69 16H1.538a1.538 1.538 0 0 1-1.535-1.437L0 14.462V4.617c0-.815.635-1.483 1.437-1.535l.101-.003h5.585l-3.14-1.94A.615.615 0 0 1 4.565.058l.063.034 3.984 2.46 3.985-2.46.063-.034a.615.615 0 0 1 .783.234zM15.69 4.31H1.538a.308.308 0 0 0-.302.252l-.005.055v9.845c0 .15.108.276.252.302l.055.005H15.69a.308.308 0 0 0 .302-.252l.005-.055V4.617a.308.308 0 0 0-.252-.302l-.055-.005z" fill="#000" fill-rule="evenodd"/>
</svg>
